<?xml version="1.0" encoding="UTF-8"?>
<!DOCTYPE svg PUBLIC "-//W3C//DTD SVG 1.1//EN" "http://www.w3.org/Graphics/SVG/1.1/DTD/svg11.dtd">
<!-- Creator: CorelDRAW -->
<svg xmlns="http://www.w3.org/2000/svg" xml:space="preserve" width="36.689mm" height="25.641mm" style="shape-rendering:geometricPrecision; text-rendering:geometricPrecision; image-rendering:optimizeQuality; fill-rule:evenodd; clip-rule:evenodd"
viewBox="0 0 36.689 25.641"
 xmlns:xlink="http://www.w3.org/1999/xlink">
 <defs>
  <style type="text/css">
   <![CDATA[
    .fil0 {fill:#767676}
    .fil1 {fill:#EF6C00}
    .fil2 {fill:#767676;fill-rule:nonzero}
   ]]>
  </style>
 </defs>
 <g id="Warstwa_x0020_1">
  <metadata id="CorelCorpID_0Corel-Layer"/>
  <g id="_363472936">
   <path id="_359813136" class="fil0" d="M20.6568 14.1263c0.1038,0 0.2053,-0.0102 0.3037,-0.0296l-3.994 3.7847c-0.2905,-0.1903 -0.567,-0.3996 -0.8254,-0.625l3.6071 -3.4182c0.2585,0.1813 0.5721,0.2881 0.9086,0.2881zm1.5445 -1.2053c0.0316,-0.1243 0.0485,-0.2541 0.0485,-0.3876 0,-0.314 -0.083,-0.6043 -0.2267,-0.8508l3.6139 -3.4244c0.2265,0.257 0.4335,0.5315 0.6185,0.8211l-4.0542 3.8417zm-0.4925 -1.6257c-0.2712,-0.2448 -0.6235,-0.3949 -1.0081,-0.4056l3.8344 -3.6333c0.2688,0.1947 0.5228,0.4091 0.7596,0.641l-3.5859 3.3979zm-2.6423 1.143c-0.0017,0.0314 -0.0026,0.0631 -0.0026,0.0951 0,0.3591 0.1216,0.692 0.3255,0.9597l-3.6124 3.423c-0.2359,-0.2361 -0.453,-0.4862 -0.6471,-0.7476l3.9366 -3.7302zm1.6417 6.621c0.5706,0 1.1167,-0.0606 1.6333,-0.1757l4.6876 -4.4419c0.1413,-0.5145 0.2263,-1.0618 0.25,-1.636l-6.5991 6.2532c0.0094,0.0001 0.0188,0.0004 0.0282,0.0004zm2.6726 -0.4963c1.4714,-0.5902 2.6182,-1.6782 3.2781,-3.1064l-3.2781 3.1064zm3.8905 -6.3993c-0.0266,-0.4096 -0.0915,-0.8098 -0.1916,-1.1968l-8.2342 7.8026c0.3898,0.1199 0.7886,0.2051 1.19,0.2507l7.2358 -6.8565zm-0.3463 -1.7068c-0.1127,-0.3235 -0.2505,-0.6359 -0.4105,-0.9351l-9.1058 8.6284c0.2996,0.1685 0.6111,0.3167 0.9308,0.4421l8.5855 -8.1354zm-2.802 -3.4764c-0.317,-0.1954 -0.6513,-0.3648 -0.9997,-0.5049l-8.7597 8.3005c0.126,0.3396 0.2915,0.6703 0.4902,0.9878l9.2692 -8.7834zm-1.4927 -0.6805c-0.3876,-0.1208 -0.7899,-0.206 -1.2029,-0.2521l-7.3479 6.9627 0 0.2422c0,0.3456 0.0454,0.6892 0.1301,1.0265l8.4207 -7.9793zm-1.8829 -0.292c-0.0131,-0.0001 -0.0261,-0.0005 -0.0392,-0.0005 -0.5114,0 -1.0738,0.1018 -1.6363,0.2041l-4.9924 4.7306 0 1.3842 6.6679 -6.3184zm-1.6835 -0.4471l0 -1.3917 -4.9844 4.723 0 1.3918 4.9844 -4.7231zm0 -2.0609l0 -1.3383 -4.9844 4.7231 0 1.3383 4.9844 -4.7231zm0 -2.0006l0 -1.4012 -4.9844 4.6246 0 1.4997 4.9844 -4.7231z"/>
   <path id="_359813280" class="fil0" d="M28.5702 13.0472l-0.0514 0 0 -0.6209 6.557 -6.2133 1.4689 0 -7.9119 7.4971c-0.0305,-0.2168 -0.0518,-0.4378 -0.0626,-0.6629zm8.1188 -6.3282l0 1.4414 -3.0966 2.9342 -0.192 0 0 0.182 -4.3145 4.0883c-0.1482,-0.3506 -0.2669,-0.7204 -0.3534,-1.1065l7.9565 -7.5394zm0 2.1295l0 1.3592 -0.9359 0.8869 -1.4345 0 2.3704 -2.2461zm0 2.0257l0 0.2204 -0.2326 0 0.2326 -0.2204zm-3.2886 1.0905l0 0.7742c0,0 0.0001,0.2146 0.1043,0.4862l-3.6512 3.4599c-0.2032,-0.2634 -0.3846,-0.5458 -0.5427,-0.8451l4.0896 -3.8752zm0.3525 1.6917c0.1797,0.2215 0.451,0.4303 0.8608,0.5555l-3.7111 3.5165c-0.2658,-0.2023 -0.512,-0.4273 -0.7371,-0.6727l3.5874 -3.3993zm1.4645 0.6647c0.0919,0.007 0.1883,0.0108 0.2898,0.0108l1.1818 0 0 0.0036 -4.3989 4.1683c-0.344,-0.1338 -0.6686,-0.2973 -0.9721,-0.4877l3.8994 -3.695zm1.4716 0.7029l0 1.344 -2.6728 2.5327c-0.4148,-0.0366 -0.812,-0.11 -1.1893,-0.217l3.8621 -3.6597zm0 2.0303l0 1.9022 -1.6443 0 -0.3441 -0.0181 1.9884 -1.8841zm-8.1702 -5.3122l0 -1.3842 4.8816 -4.6257 0 0.4808 0.9533 0 -5.8349 5.5291zm0 -2.0424l0 -1.3917 4.8816 -4.6257 0 1.3916 -4.8816 4.6258zm0 -2.0609l0 -1.3383 4.8816 -4.6257 0 1.3383 -4.8816 4.6257zm0 -2.0006l0 -1.1209 4.8816 -4.5733 0 1.0685 -4.8816 4.6257z"/>
   <path id="_364602336" class="fil1" d="M-0 12.6876l0.0514 0c0,-0.1028 0,-0.2056 0,-0.3084 0,-3.5456 2.9803,-6.4231 6.5259,-6.4231 3.6483,0 6.5773,2.8775 6.5773,6.4231 0,3.597 -2.929,6.7315 -6.5773,6.7315 -0.5139,0 -1.0791,-0.1028 -1.5929,-0.2055l0 2.7747 -4.2136 3.9053 -0.7708 0 0 -12.8976zm6.6252 -1.5148c0.6776,0 1.2356,0.5182 1.2356,1.1957 0,0.6776 -0.558,1.1957 -1.2356,1.1957 -0.6775,0 -1.2355,-0.5181 -1.2355,-1.1957 0,-0.6775 0.558,-1.1957 1.2355,-1.1957z"/>
   <path id="_359813712" class="fil2" d="M16.024 21.9243l0.6944 0c0.1879,0 0.3326,0.0145 0.4333,0.0442 0.1012,0.0296 0.1772,0.0721 0.2275,0.1275 0.0509,0.0559 0.0856,0.1235 0.1034,0.2023 0.0179,0.0794 0.0269,0.2018 0.0269,0.3679l0 0.2309c0,0.1694 -0.0173,0.2929 -0.052,0.3701 -0.0353,0.0777 -0.0995,0.137 -0.1929,0.1789 -0.0934,0.0413 -0.2152,0.062 -0.3656,0.062l-0.1851 0 0 1.0679 -0.6899 0 0 -2.6517zm0.6899 0.4534l0 0.6748c0.0196,0.0011 0.0364,0.0017 0.0503,0.0017 0.0638,0 0.1074,-0.0157 0.132,-0.0464 0.0246,-0.0313 0.0369,-0.0962 0.0369,-0.194l0 -0.218c0,-0.0906 -0.014,-0.1499 -0.0425,-0.1767 -0.0285,-0.0274 -0.0872,-0.0414 -0.1767,-0.0414zm1.5978 -0.4198l0.6882 0c0.217,0 0.3819,0.0167 0.4937,0.0509 0.1118,0.0335 0.2024,0.1023 0.2711,0.2051 0.0688,0.1035 0.1029,0.2695 0.1029,0.4987 0,0.1554 -0.024,0.2633 -0.0727,0.3243 -0.0486,0.0615 -0.1442,0.1084 -0.2873,0.1408 0.1593,0.0364 0.2672,0.0962 0.3242,0.1795 0.0565,0.0839 0.085,0.2119 0.085,0.3841l0 0.2459c0,0.179 -0.0201,0.3115 -0.0615,0.3981 -0.0408,0.0861 -0.1062,0.1448 -0.1957,0.1767 -0.0894,0.0319 -0.2728,0.0475 -0.5501,0.0475l-0.7978 0 0 -2.6516zm0.6899 0.4534l0 0.5898c0.0291,-0.0011 0.052,-0.0017 0.0688,-0.0017 0.0676,0 0.1107,-0.0167 0.1291,-0.0498 0.0185,-0.0335 0.028,-0.1285 0.028,-0.2856 0,-0.0833 -0.0078,-0.1415 -0.0229,-0.1745 -0.0157,-0.0335 -0.0352,-0.0547 -0.0598,-0.0631 -0.0246,-0.009 -0.0727,-0.014 -0.1432,-0.0151zm0 1.0024l0 0.7419c0.0967,-0.0029 0.1588,-0.0185 0.1856,-0.0459 0.0269,-0.0268 0.0403,-0.0945 0.0403,-0.2012l0 -0.2472c0,-0.1135 -0.0123,-0.1822 -0.0363,-0.2062 -0.0241,-0.0241 -0.0873,-0.0381 -0.1896,-0.0414zm4.0817 -1.4558l0 0.5305 -0.4092 0 0 2.1211 -0.6893 0 0 -2.1211 -0.4082 0 0 -0.5305 1.5067 0zm0.8285 -0.0336l1.15 0 0 0.5306 -0.4601 0 0 0.5026 0.4305 0 0 0.5048 -0.4305 0 0 0.5831 0.506 0 0 0.5306 -1.1959 0 0 -2.6517zm3.5741 1.1897l-0.6894 0 0 -0.4618c0,-0.1341 -0.0077,-0.218 -0.0223,-0.2516 -0.0145,-0.0329 -0.0469,-0.0497 -0.0973,-0.0497 -0.057,0 -0.0928,0.0201 -0.1084,0.0604 -0.0151,0.0408 -0.023,0.128 -0.023,0.2622l0 1.2316c0,0.1291 0.0079,0.213 0.023,0.2521 0.0156,0.0397 0.0497,0.0593 0.1034,0.0593 0.0514,0 0.085,-0.0196 0.1006,-0.0593 0.0157,-0.0391 0.024,-0.1314 0.024,-0.2767l0 -0.3321 0.6894 0 0 0.1029c0,0.2739 -0.0196,0.4685 -0.0581,0.5831 -0.0386,0.1146 -0.1247,0.2152 -0.2572,0.3013 -0.1325,0.0861 -0.2963,0.1297 -0.4903,0.1297 -0.2024,0 -0.369,-0.0369 -0.4998,-0.1101 -0.1308,-0.0732 -0.2181,-0.1744 -0.2606,-0.3036 -0.0424,-0.1297 -0.0637,-0.3243 -0.0637,-0.5842l0 -0.7743c0,-0.1912 0.0067,-0.3343 0.0196,-0.4299 0.0134,-0.0956 0.052,-0.1879 0.1174,-0.2762 0.0648,-0.0883 0.1548,-0.1582 0.27,-0.2091 0.1152,-0.0503 0.2477,-0.076 0.3969,-0.076 0.2036,0 0.3713,0.0397 0.5032,0.1179 0.1319,0.0789 0.2186,0.1767 0.2605,0.2941 0.0414,0.1174 0.0621,0.3002 0.0621,0.5479l0 0.2521zm2.5034 -1.1561l0 2.6516 -0.6893 0 0 -1.1136 -0.2063 0 0 1.1136 -0.6899 0 0 -2.6516 0.6899 0 0 0.9482 0.2063 0 0 -0.9482 0.6893 0zm2.5544 -0.0336l0 2.6517 -0.6044 0 -0.3589 -1.2054 0 1.2054 -0.5764 0 0 -2.6517 0.5764 0 0.3869 1.1942 0 -1.1942 0.5764 0zm1.671 0.0336l0 2.6516 -0.6899 0 0 -2.6516 0.6899 0zm2.3224 0l-0.3947 1.1969 0.4321 1.4547 -0.7122 0 -0.2784 -1.1366 0 1.1366 -0.6899 0 0 -2.6516 0.6899 0 0 1.0303 0.3058 -1.0303 0.6474 0z"/>
  </g>
 </g>
</svg>
